<?xml version="1.0" standalone="no"?>
<!DOCTYPE svg PUBLIC "-//W3C//DTD SVG 20010904//EN"
 "http://www.w3.org/TR/2001/REC-SVG-20010904/DTD/svg10.dtd">
<svg version="1.0" xmlns="http://www.w3.org/2000/svg"
 width="734.000000pt" height="340.000000pt" viewBox="0 0 734.000000 340.000000"
 preserveAspectRatio="xMidYMid meet">

<g transform="translate(0.000000,340.000000) scale(0.100000,-0.100000)"
fill="#000000" stroke="none">
<path d="M3741 2964 c0 -11 3 -14 6 -6 3 7 2 16 -1 19 -3 4 -6 -2 -5 -13z"/>
<path d="M3735 2620 c-3 -5 -1 -10 4 -10 6 0 11 5 11 10 0 6 -2 10 -4 10 -3 0
-8 -4 -11 -10z"/>
<path d="M3815 2410 c3 -5 16 -10 28 -10 18 0 19 2 7 10 -20 13 -43 13 -35 0z"/>
<path d="M3738 2393 c7 -3 16 -2 19 1 4 3 -2 6 -13 5 -11 0 -14 -3 -6 -6z"/>
<path d="M3654 2270 c0 -63 1 -89 3 -57 2 31 2 83 0 115 -2 31 -3 5 -3 -58z"/>
<path d="M3911 2354 c0 -11 3 -14 6 -6 3 7 2 16 -1 19 -3 4 -6 -2 -5 -13z"/>
<path d="M4377 2323 c-4 -3 -3 -11 2 -17 10 -12 20 -346 10 -340 -3 2 -4 -13
-2 -34 2 -20 3 -45 4 -54 0 -10 3 -18 7 -18 12 0 11 74 -1 82 -9 6 -9 8 0 8 8
0 12 41 12 136 1 75 6 144 11 154 5 10 6 21 2 25 -4 3 -8 11 -8 16 -1 5 -2 14
-3 19 0 6 -8 10 -17 10 -8 0 -12 5 -9 10 7 11 2 13 -8 3z"/>
<path d="M3680 2165 c-52 -52 -187 -186 -300 -299 -112 -113 -209 -208 -215
-210 -17 -7 82 -9 648 -10 l548 -1 -3 25 c-5 44 -34 49 -311 52 l-257 2 0 37
0 36 108 0 c160 0 324 13 319 27 -8 28 -73 45 -182 48 -106 3 -109 4 -117 28
l-8 25 4 -27 c3 -26 3 -26 -61 -25 -63 2 -63 2 -63 32 0 22 3 26 12 17 7 -7
17 -8 27 -3 9 5 67 9 130 9 63 1 118 5 123 10 4 4 -5 20 -21 36 -28 27 -32 28
-150 29 l-121 2 0 27 c0 25 3 27 38 25 20 -1 62 0 92 1 l55 2 -38 37 c-35 32
-44 36 -93 36 -50 0 -54 2 -54 23 0 21 5 24 35 24 19 0 35 4 35 8 0 8 -74 72
-82 72 -2 0 -46 -43 -98 -95z"/>
<path d="M3913 2195 c0 -22 2 -30 4 -17 2 12 2 30 0 40 -3 9 -5 -1 -4 -23z"/>
<path d="M3912 2030 c0 -14 2 -19 5 -12 2 6 2 18 0 25 -3 6 -5 1 -5 -13z"/>
<path d="M4402 1810 c0 -14 2 -19 5 -12 2 6 2 18 0 25 -3 6 -5 1 -5 -13z"/>
<path d="M3902 1760 c0 -19 2 -27 5 -17 2 9 2 25 0 35 -3 9 -5 1 -5 -18z"/>
<path d="M4408 1720 c2 -28 7 -50 11 -50 8 0 2 82 -8 92 -3 4 -4 -15 -3 -42z"/>
<path d="M4407 1653 c-4 -3 -7 -24 -7 -45 l0 -38 -133 0 c-157 0 -180 -9 -175
-68 4 -54 28 -62 190 -62 l138 0 -3 110 c-1 60 -2 110 -3 110 0 0 -4 -3 -7 -7z
m-37 -123 c0 -6 -38 -10 -95 -10 -78 0 -95 -3 -95 -15 0 -12 19 -15 103 -16
l102 -2 -100 -9 c-126 -12 -165 -6 -165 26 0 12 3 26 7 29 11 11 243 8 243 -3z"/>
<path d="M3808 1631 c8 -4 12 -19 10 -32 -3 -22 -9 -24 -73 -29 l-69 -5 -38
-54 c-41 -58 -45 -71 -25 -71 6 0 27 23 46 51 l34 50 56 -3 c49 -3 56 -6 62
-28 4 -14 7 -136 8 -272 1 -188 -2 -248 -11 -251 -7 -3 1 -6 17 -6 l30 -1 -3
250 c-2 188 -6 250 -15 251 -7 0 -3 4 8 8 11 5 21 13 21 20 1 6 2 16 3 21 0 6
27 10 59 10 l57 0 34 -50 c19 -28 40 -50 48 -50 19 0 17 5 -29 70 l-42 60 -67
0 c-45 0 -69 -4 -72 -12 -3 -7 -6 6 -6 29 -1 24 4 43 12 46 6 3 -6 6 -28 6
-26 0 -35 -2 -27 -8z"/>
<path d="M3570 1520 c-31 -49 -33 -50 -80 -50 -43 0 -51 4 -70 30 -12 17 -25
30 -30 30 -4 0 -17 -19 -29 -42 -23 -46 -13 -62 19 -33 18 16 20 16 26 1 5
-13 21 -16 78 -16 l71 0 38 58 c41 65 43 72 23 72 -8 0 -28 -22 -46 -50z"/>
<path d="M4391 1361 c-1 -38 2 -72 8 -75 6 -4 11 24 13 69 2 50 -1 75 -8 75
-7 0 -12 -27 -13 -69z"/>
<path d="M4385 1243 c-13 -46 -14 -53 -4 -47 5 3 7 10 4 15 -4 5 0 9 8 9 8 0
17 7 21 15 3 8 0 15 -7 15 -8 0 -6 4 3 10 13 8 13 10 -1 10 -10 0 -20 -12 -24
-27z"/>
</g>
</svg>
